<svg xmlns="http://www.w3.org/2000/svg" width="256" height="256" viewBox="0 0 256 256">
<!-- SVG created with Arrow, by QuiverAI (https://quiver.ai) -->
  <path d="m134.2 3c-23.77-0.69-44.61 18.22-47.35 44.73-0.74 7.46 5.5 11.21 11.33 10.25 2.72-0.45 4.34-1.8 6.71-4.25l24.64-25.06c7.26-7.39 19.39-6.08 26.35-2.05 7.04 4.11 13-1.01 13.34-6.38 0.21-3.38-1.5-6.13-4.59-7.98-8.8-5.6-17.53-8.88-30.43-9.26z" fill="#000"/>
  <path d="m159.9 58.32h36.82c11.1 0 18.85 8.3 21.34 18.02 1.57 6.44 7.14 8.34 11.55 6.72 4.36-1.6 6.56-5.89 5.49-10.25-6.17-26.73-25.27-43.39-48.92-43.39-12.25 0-21.95 3.78-31.38 11.05-7.72 6.26-4.77 17.85 5.1 17.85z" fill="#000"/>
  <path d="m207.9 85.7c-7.73 0-11.95 9.25-7.9 15.36 0.66 1.05 1.62 2.22 2.95 3.55l24.81 24.37c8.14 7.71 6.54 19.73 1.16 27.98-3.11 4.9-0.19 11.8 6.39 12.3 3.69 0.3 6.49-1.35 8.42-4.83 7.44-12.06 10.51-22.64 9.77-34.81-1.8-22.43-18.63-39.59-45.6-43.92z" fill="#000"/>
  <path d="m214 153c-7.3-5.02-16.65 0.81-16.65 8.33v36.62c0 10.34-8.52 17.73-17.8 20.26-5.6 1.56-8.3 6.78-6.66 11.33 1.61 4.54 5.99 6.09 10.59 4.81 24.25-5.78 42.81-26.27 42.81-48.63 0-11.98-3.7-22.33-12.29-32.72z" fill="#000"/>
  <path d="m161.8 197.2c-3.9-0.36-6.68 1.26-8.58 3.38l-25.32 25.65c-8.03 8.43-18.68 7.06-27.49 2.12-4.7-2.59-9.34-0.58-11.48 3.36-2.32 4.65-0.46 9.41 4.56 12.04 9.62 5.99 19.22 9.01 28.98 8.71 23.61-0.79 45.1-19.69 48.49-45.02 0.97-5.9-2.74-9.73-9.16-10.24z" fill="#000"/>
  <path d="m95.49 197.3h-37.16c-11.01 0-18.77-7.92-21.46-18.22-1.4-4.86-6.75-7-11.25-5.55-4.38 1.56-6.8 5.84-5.66 10.67 6.26 24.78 24.75 41.67 49.67 41.67 12.69 0 23.44-4.34 32.01-11.95 7.39-6.75 2.61-16.62-6.15-16.62z" fill="#000"/>
  <path d="m55.14 153.9-26.62-26.63c-7.96-7.66-6.59-18-1.91-26.9 2.75-5.13 0-12.16-6.7-12.67-3.98-0.38-6.86 1.57-8.85 5.29-7.44 11.55-8.25 20.05-8.25 30.68 0 22.4 15.93 40.7 41.18 47.05 10.1 2.67 15.79-5.75 13.1-12.91-0.5-1.45-1.11-2.57-1.95-3.91z" fill="#000"/>
  <path d="m47.17 105.1c6.77 0.47 11.45-4.66 11.34-9.97l0.45-35.99c0-11.09 7.55-19.2 18.15-21.89 6.88-1.7 8.18-7.02 7.2-10.95-1.47-5.08-6.34-7.09-11.35-5.62-24.74 6.35-44.23 25.42-44.23 49.82 0 11.59 4.5 23.15 11.38 31.27 2.25 2.42 4.52 3.22 7.06 3.33z" fill="#000"/>
</svg>